<svg width="24.000000" height="24.000000" viewBox="0 0 24 24" fill="none" xmlns="http://www.w3.org/2000/svg" xmlns:xlink="http://www.w3.org/1999/xlink">
	<desc>
			Created with Pixso.
	</desc>
	<defs>
		<clipPath id="clip1_4493">
			<rect id="Frame" rx="0.000000" width="23.000000" height="23.000000" transform="translate(0.500000 0.500000)" fill="white" fill-opacity="0"/>
		</clipPath>
	</defs>
	<rect id="Frame" rx="0.000000" width="23.000000" height="23.000000" transform="translate(0.500000 0.500000)" fill="#FFFFFF" fill-opacity="0"/>
	<g clip-path="url(#clip1_4493)">
		<path id="Vector" d="M21.79 20.2L17.34 15.75C18.67 14.01 19.3 11.82 19.08 9.64C18.87 7.46 17.83 5.44 16.18 3.99C14.53 2.55 12.4 1.78 10.2 1.86C8.01 1.93 5.93 2.83 4.38 4.38C2.83 5.93 1.93 8.01 1.86 10.2C1.78 12.4 2.55 14.53 3.99 16.18C5.44 17.83 7.46 18.87 9.64 19.08C11.82 19.3 14.01 18.67 15.75 17.34L20.2 21.8C20.31 21.9 20.43 21.98 20.57 22.04C20.7 22.1 20.85 22.13 21 22.13C21.15 22.13 21.29 22.1 21.43 22.04C21.57 21.98 21.69 21.9 21.79 21.8C21.9 21.69 21.98 21.57 22.04 21.43C22.1 21.29 22.12 21.15 22.12 21C22.12 20.85 22.1 20.7 22.04 20.57C21.98 20.43 21.9 20.31 21.79 20.2L21.79 20.2ZM4.12 10.5C4.12 9.23 4.49 8 5.19 6.95C5.89 5.9 6.89 5.09 8.06 4.61C9.22 4.12 10.5 4 11.74 4.24C12.98 4.49 14.11 5.1 15 5.99C15.89 6.88 16.5 8.01 16.75 9.25C16.99 10.49 16.87 11.77 16.38 12.93C15.9 14.1 15.09 15.1 14.04 15.8C12.99 16.5 11.76 16.87 10.5 16.87C8.8 16.87 7.18 16.2 5.99 15C4.79 13.81 4.12 12.19 4.12 10.5Z" fill="#000000" fill-opacity="0.400000" fill-rule="nonzero"/>
	</g>
</svg>
